<!DOCTYPE svg PUBLIC "-//W3C//DTD SVG 1.1//EN" "http://www.w3.org/Graphics/SVG/1.1/DTD/svg11.dtd">
<!-- Uploaded to: SVG Repo, www.svgrepo.com, Transformed by: SVG Repo Mixer Tools -->
<svg version="1.1" id="_x36_" xmlns="http://www.w3.org/2000/svg" xmlns:xlink="http://www.w3.org/1999/xlink" viewBox="0 0 512 512" xml:space="preserve" width="800px" height="800px" fill="#000000">
<g id="SVGRepo_bgCarrier" stroke-width="0"/>
<g id="SVGRepo_tracerCarrier" stroke-linecap="round" stroke-linejoin="round"/>
<g id="SVGRepo_iconCarrier"> <g> <g> <g> <path style="fill:#82A7A6;" d="M329.647,67.765v64.079l26.509-26.511V67.765H329.647z M155.843,0v186.117h200.313V0H155.843z M329.647,159.608H182.353V26.51h147.294V159.608z"/> </g> <g style="opacity:0.2;"> <path style="fill:#4B9A5D;" d="M155.843,0v38.902h26.51V26.51h147.294v12.392h26.509V0H155.843z"/> </g> <g> <rect y="60.941" style="fill:#84B98D;" width="512" height="340.705"/> </g> <g> <rect x="23.36" y="84.304" style="fill:#E7F5FA;" width="465.276" height="293.961"/> </g> <g style="opacity:0.1;"> <path style="fill:#DDDDDE;" d="M0,60.941v340.705h7.765V67.765H512v-6.824H0z"/> </g> <path style="fill:#84B98D;" d="M57.519,117.977L57.519,117.977c-5.033,0-9.15-4.118-9.15-9.15l0,0c0-5.033,4.118-9.15,9.15-9.15 l0,0c5.033,0,9.15,4.118,9.15,9.15l0,0C66.669,113.859,62.551,117.977,57.519,117.977z"/> <path style="fill:#84B98D;" d="M57.519,363.075L57.519,363.075c-5.033,0-9.15-4.118-9.15-9.15l0,0c0-5.033,4.118-9.15,9.15-9.15 l0,0c5.033,0,9.15,4.118,9.15,9.15l0,0C66.669,358.957,62.551,363.075,57.519,363.075z"/> <path style="fill:#84B98D;" d="M462.094,117.977L462.094,117.977c-5.033,0-9.15-4.118-9.15-9.15l0,0c0-5.033,4.118-9.15,9.15-9.15 h0c5.033,0,9.15,4.118,9.15,9.15l0,0C471.244,113.859,467.126,117.977,462.094,117.977z"/> <path style="fill:#84B98D;" d="M462.094,363.075L462.094,363.075c-5.033,0-9.15-4.118-9.15-9.15l0,0c0-5.033,4.118-9.15,9.15-9.15 h0c5.033,0,9.15,4.118,9.15,9.15l0,0C471.244,358.957,467.126,363.075,462.094,363.075z"/> <g> <g> <polygon style="fill:#E3E2E2;" points="136.763,396.048 133.454,402.414 127.633,413.569 86.517,413.569 80.697,402.414 77.387,396.048 "/> </g> <g> <polygon style="fill:#E3E2E2;" points="434.618,396.048 431.309,402.414 425.487,413.569 384.372,413.569 378.551,402.414 375.241,396.048 "/> </g> </g> <polygon style="opacity:0.1;fill:#040000;" points="77.387,396.048 136.763,396.048 133.454,402.414 80.697,402.414 "/> <polygon style="opacity:0.1;fill:#040000;" points="434.618,396.048 431.309,402.414 378.551,402.414 375.241,396.048 "/> </g> <polygon style="opacity:0.09;fill:#040000;" points="512,60.941 512,401.647 434.588,401.647 431.294,408 425.49,419.137 384.392,419.137 378.588,408 375.216,401.647 136.784,401.647 133.49,408 127.608,419.137 86.51,419.137 80.706,408 77.412,401.647 59.843,401.647 301.882,159.608 329.647,131.844 356.156,105.333 377.176,84.314 393.725,67.765 400.549,60.941 "/> </g> </g>
</svg>